<svg width="500" height="500" xmlns="http://www.w3.org/2000/svg">
  <defs>
    <pattern id="circuit" x="0" y="0" width="100" height="100" patternUnits="userSpaceOnUse">
      <!-- 水平线 -->
      <line x1="0" y1="20" x2="100" y2="20" stroke="#ffaa00" stroke-width="1" />
      <line x1="0" y1="80" x2="100" y2="80" stroke="#ffaa00" stroke-width="1" />
      
      <!-- 垂直线 -->
      <line x1="20" y1="0" x2="20" y2="100" stroke="#ffaa00" stroke-width="1" />
      <line x1="80" y1="0" x2="80" y2="100" stroke="#ffaa00" stroke-width="1" />
      
      <!-- 连接点 -->
      <circle cx="20" cy="20" r="3" fill="#ffaa00" />
      <circle cx="80" cy="20" r="3" fill="#ffaa00" />
      <circle cx="20" cy="80" r="3" fill="#ffaa00" />
      <circle cx="80" cy="80" r="3" fill="#ffaa00" />
      
      <!-- 对角线连接 -->
      <line x1="20" y1="20" x2="80" y2="80" stroke="#ffaa00" stroke-width="1" />
      <line x1="80" y1="20" x2="20" y2="80" stroke="#ffaa00" stroke-width="1" />
      
      <!-- 小圆点 -->
      <circle cx="50" cy="50" r="5" fill="#ffaa00" />
      
      <!-- 连接线 -->
      <path d="M20,50 Q35,50 35,35 T50,20" stroke="#ffaa00" fill="none" stroke-width="1" />
      <path d="M80,50 Q65,50 65,65 T50,80" stroke="#ffaa00" fill="none" stroke-width="1" />
      <path d="M50,20 Q50,35 65,35 T80,50" stroke="#ffaa00" fill="none" stroke-width="1" />
      <path d="M50,80 Q50,65 35,65 T20,50" stroke="#ffaa00" fill="none" stroke-width="1" />
    </pattern>
  </defs>
  
  <rect width="100%" height="100%" fill="url(#circuit)" />
</svg> 