<svg width="1000" height="1000" xmlns="http://www.w3.org/2000/svg">
  <defs>
    <pattern id="smallGrid" width="20" height="20" patternUnits="userSpaceOnUse">
      <path d="M 20 0 L 0 0 0 20" fill="none" stroke="rgba(255, 255, 255, 0.05)" stroke-width="0.5" />
    </pattern>
    <pattern id="grid" width="100" height="100" patternUnits="userSpaceOnUse">
      <rect width="100" height="100" fill="url(#smallGrid)" />
      <path d="M 100 0 L 0 0 0 100" fill="none" stroke="rgba(255, 255, 255, 0.1)" stroke-width="1" />
    </pattern>
    <filter id="glow">
      <feGaussianBlur stdDeviation="2.5" result="coloredBlur" />
      <feMerge>
        <feMergeNode in="coloredBlur" />
        <feMergeNode in="SourceGraphic" />
      </feMerge>
    </filter>
    <linearGradient id="grad1" x1="0%" y1="0%" x2="100%" y2="100%">
      <stop offset="0%" style="stop-color:rgba(255,255,255,0.1);stop-opacity:1" />
      <stop offset="100%" style="stop-color:rgba(255,255,255,0);stop-opacity:1" />
    </linearGradient>
  </defs>

  <!-- 背景网格 -->
  <rect width="100%" height="100%" fill="url(#grid)" />

  <!-- 抽象形状 -->
  <circle cx="200" cy="200" r="80" fill="url(#grad1)" filter="url(#glow)" />
  <circle cx="800" cy="700" r="120" fill="url(#grad1)" filter="url(#glow)" />
  
  <path d="M300,300 Q450,150 600,300 T900,300" stroke="rgba(255,255,255,0.1)" stroke-width="2" fill="none" />
  <path d="M100,500 Q250,350 400,500 T700,500" stroke="rgba(255,255,255,0.08)" stroke-width="2" fill="none" />
  <path d="M100,700 Q300,550 500,700 T900,700" stroke="rgba(255,255,255,0.1)" stroke-width="2" fill="none" />
  
  <!-- 装饰点 -->
  <g fill="rgba(255,255,255,0.15)">
    <circle cx="150" cy="150" r="3" />
    <circle cx="200" cy="150" r="2" />
    <circle cx="250" cy="150" r="4" />
    <circle cx="150" cy="200" r="2" />
    <circle cx="250" cy="200" r="3" />
    <circle cx="150" cy="250" r="4" />
    <circle cx="200" cy="250" r="3" />
    <circle cx="250" cy="250" r="2" />
    
    <circle cx="750" cy="650" r="3" />
    <circle cx="800" cy="650" r="2" />
    <circle cx="850" cy="650" r="4" />
    <circle cx="750" cy="700" r="2" />
    <circle cx="850" cy="700" r="3" />
    <circle cx="750" cy="750" r="4" />
    <circle cx="800" cy="750" r="3" />
    <circle cx="850" cy="750" r="2" />
  </g>
  
  <!-- 连接线 -->
  <g stroke="rgba(255,255,255,0.05)" stroke-width="1" stroke-dasharray="5,5">
    <line x1="100" y1="100" x2="300" y2="300" />
    <line x1="900" y1="100" x2="700" y2="300" />
    <line x1="100" y1="900" x2="300" y2="700" />
    <line x1="900" y1="900" x2="700" y2="700" />
  </g>
</svg> 